<svg xmlns="http://www.w3.org/2000/svg" viewBox="0 0 100 100" fill="none">
  <defs>
    <linearGradient id="g1" x1="0" y1="0" x2="1" y2="1">
      <stop offset="0" stop-color="#22e0ff"/>
      <stop offset="1" stop-color="#ff2bd6"/>
    </linearGradient>
  </defs>
  <circle cx="50" cy="50" r="46" fill="#0a0d14" stroke="url(#g1)" stroke-width="3"/>
  <path d="M 36 25 L 36 75 L 47 75 L 47 56 L 56 56 C 68 56 74 47 74 38 C 74 29 68 25 56 25 Z M 47 35 L 54 35 C 60 35 63 36 63 40 C 63 44 60 46 54 46 L 47 46 Z"
    fill="url(#g1)"/>
  <path d="M 12 50 L 28 50 L 33 42 L 40 60 L 47 38 L 54 58 L 60 48 L 70 50 L 88 50"
    fill="none" stroke="url(#g1)" stroke-width="2" stroke-linecap="round" stroke-linejoin="round"/>
</svg>
